<svg width="187" height="137" viewBox="0 0 187 137" fill="none" xmlns="http://www.w3.org/2000/svg">
<g opacity="0.8" clip-path="url(#clip0_2234_8808)">
<path d="M5.3356 43.2957C5.3356 44.8151 4.19226 45.9546 2.6678 45.9546C1.14334 45.9546 0 44.8151 0 43.2957C0 41.7763 1.14334 40.6367 2.6678 40.6367C4.19226 40.6367 5.3356 41.9029 5.3356 43.2957Z" fill="white"/>
<path d="M28.0753 43.2957C28.0753 44.8151 26.932 45.9546 25.4075 45.9546C23.8831 45.9546 22.7397 44.8151 22.7397 43.2957C22.7397 41.7763 23.8831 40.6367 25.4075 40.6367C26.805 40.6367 28.0753 41.9029 28.0753 43.2957Z" fill="white"/>
<path d="M50.6881 43.2957C50.6881 44.8151 49.5448 45.9546 48.0203 45.9546C46.4959 45.9546 45.3525 44.8151 45.3525 43.2957C45.3525 41.7763 46.4959 40.6367 48.0203 40.6367C49.5448 40.6367 50.6881 41.9029 50.6881 43.2957Z" fill="white"/>
<path d="M73.4279 43.2957C73.4279 44.8151 72.2845 45.9546 70.7601 45.9546C69.2356 45.9546 68.0923 44.8151 68.0923 43.2957C68.0923 41.7763 69.2356 40.6367 70.7601 40.6367C72.2845 40.6367 73.4279 41.9029 73.4279 43.2957Z" fill="white"/>
<path d="M96.1676 43.2957C96.1676 44.8151 95.0243 45.9546 93.4998 45.9546C91.9754 45.9546 90.832 44.8151 90.832 43.2957C90.832 41.7763 91.9754 40.6367 93.4998 40.6367C94.8972 40.6367 96.1676 41.9029 96.1676 43.2957Z" fill="white"/>
<path d="M118.908 43.2957C118.908 44.8151 117.765 45.9546 116.24 45.9546C114.716 45.9546 113.572 44.8151 113.572 43.2957C113.572 41.7763 114.716 40.6367 116.24 40.6367C117.765 40.6367 118.908 41.9029 118.908 43.2957Z" fill="white"/>
<path d="M141.52 43.2957C141.52 44.8151 140.377 45.9546 138.852 45.9546C137.328 45.9546 136.185 44.8151 136.185 43.2957C136.185 41.7763 137.328 40.6367 138.852 40.6367C140.377 40.6367 141.52 41.9029 141.52 43.2957Z" fill="white"/>
<path d="M164.26 43.2957C164.26 44.8151 163.117 45.9546 161.592 45.9546C160.068 45.9546 158.924 44.8151 158.924 43.2957C158.924 41.7763 160.068 40.6367 161.592 40.6367C163.117 40.6367 164.26 41.9029 164.26 43.2957Z" fill="white"/>
<path d="M187 43.2957C187 44.8151 185.857 45.9546 184.332 45.9546C182.808 45.9546 181.665 44.8151 181.665 43.2957C181.665 41.7763 182.808 40.6367 184.332 40.6367C185.73 40.6367 187 41.9029 187 43.2957Z" fill="white"/>
<path d="M5.3356 63.614C5.3356 65.1335 4.19226 66.273 2.6678 66.273C1.14334 66.273 0 65.1335 0 63.614C0 62.0946 1.14334 60.9551 2.6678 60.9551C4.19226 60.9551 5.3356 62.0946 5.3356 63.614Z" fill="white"/>
<path d="M28.0753 63.614C28.0753 65.1335 26.932 66.273 25.4075 66.273C23.8831 66.273 22.7397 65.1335 22.7397 63.614C22.7397 62.0946 23.8831 60.9551 25.4075 60.9551C26.805 60.9551 28.0753 62.0946 28.0753 63.614Z" fill="white"/>
<path d="M50.6881 63.614C50.6881 65.1335 49.5448 66.273 48.0203 66.273C46.4959 66.273 45.3525 65.1335 45.3525 63.614C45.3525 62.0946 46.4959 60.9551 48.0203 60.9551C49.5448 60.9551 50.6881 62.0946 50.6881 63.614Z" fill="white"/>
<path d="M73.4279 63.614C73.4279 65.1335 72.2845 66.273 70.7601 66.273C69.2356 66.273 68.0923 65.1335 68.0923 63.614C68.0923 62.0946 69.2356 60.9551 70.7601 60.9551C72.2845 60.9551 73.4279 62.0946 73.4279 63.614Z" fill="white"/>
<path d="M96.1676 63.614C96.1676 65.1335 95.0243 66.273 93.4998 66.273C91.9754 66.273 90.832 65.1335 90.832 63.614C90.832 62.0946 91.9754 60.9551 93.4998 60.9551C94.8972 60.9551 96.1676 62.0946 96.1676 63.614Z" fill="white"/>
<path d="M118.908 63.614C118.908 65.1335 117.765 66.273 116.24 66.273C114.716 66.273 113.572 65.1335 113.572 63.614C113.572 62.0946 114.716 60.9551 116.24 60.9551C117.765 60.9551 118.908 62.0946 118.908 63.614Z" fill="white"/>
<path d="M141.52 63.614C141.52 65.1335 140.377 66.273 138.852 66.273C137.328 66.273 136.185 65.1335 136.185 63.614C136.185 62.0946 137.328 60.9551 138.852 60.9551C140.377 60.9551 141.52 62.0946 141.52 63.614Z" fill="white"/>
<path d="M164.26 63.614C164.26 65.1335 163.117 66.273 161.592 66.273C160.068 66.273 158.924 65.1335 158.924 63.614C158.924 62.0946 160.068 60.9551 161.592 60.9551C163.117 60.9551 164.26 62.0946 164.26 63.614Z" fill="white"/>
<path d="M187 63.614C187 65.1335 185.857 66.273 184.332 66.273C182.808 66.273 181.665 65.1335 181.665 63.614C181.665 62.0946 182.808 60.9551 184.332 60.9551C185.73 60.9551 187 62.0946 187 63.614Z" fill="white"/>
<path d="M5.3356 2.65896C5.3356 4.17837 4.19226 5.31793 2.6678 5.31793C1.14334 5.31793 0 4.17837 0 2.65896C0 1.13956 1.14334 0 2.6678 0C4.19226 0 5.3356 1.13956 5.3356 2.65896Z" fill="white"/>
<path d="M28.0753 2.65896C28.0753 4.17837 26.932 5.31793 25.4075 5.31793C23.8831 5.31793 22.7397 4.17837 22.7397 2.65896C22.7397 1.13956 23.8831 0 25.4075 0C26.805 0 28.0753 1.13956 28.0753 2.65896Z" fill="white"/>
<path d="M50.6881 2.65896C50.6881 4.17837 49.5448 5.31793 48.0203 5.31793C46.4959 5.31793 45.3525 4.17837 45.3525 2.65896C45.3525 1.13956 46.6229 0 48.0203 0C49.5448 0 50.6881 1.13956 50.6881 2.65896Z" fill="white"/>
<path d="M73.4279 2.65896C73.4279 4.17837 72.2845 5.31793 70.7601 5.31793C69.2356 5.31793 68.0923 4.17837 68.0923 2.65896C68.0923 1.13956 69.3627 0 70.7601 0C72.1575 0 73.4279 1.13956 73.4279 2.65896Z" fill="white"/>
<path d="M96.1676 2.65896C96.1676 4.17837 95.0243 5.31793 93.4998 5.31793C91.9754 5.31793 90.832 4.17837 90.832 2.65896C90.832 1.13956 91.9754 0 93.4998 0C94.8972 0 96.1676 1.13956 96.1676 2.65896Z" fill="white"/>
<path d="M118.908 2.65896C118.908 4.17837 117.765 5.31793 116.24 5.31793C114.716 5.31793 113.572 4.17837 113.572 2.65896C113.572 1.13956 114.716 0 116.24 0C117.765 0 118.908 1.13956 118.908 2.65896Z" fill="white"/>
<path d="M141.52 2.65896C141.52 4.17837 140.377 5.31793 138.852 5.31793C137.328 5.31793 136.185 4.17837 136.185 2.65896C136.185 1.13956 137.328 0 138.852 0C140.377 0 141.52 1.13956 141.52 2.65896Z" fill="white"/>
<path d="M164.26 2.65896C164.26 4.17837 163.117 5.31793 161.592 5.31793C160.068 5.31793 158.924 4.17837 158.924 2.65896C158.924 1.13956 160.068 0 161.592 0C163.117 0 164.26 1.13956 164.26 2.65896Z" fill="white"/>
<path d="M187 2.65896C187 4.17837 185.857 5.31793 184.332 5.31793C182.808 5.31793 181.665 4.17837 181.665 2.65896C181.665 1.13956 182.808 0 184.332 0C185.73 0 187 1.13956 187 2.65896Z" fill="white"/>
<path d="M5.3356 22.9773C5.3356 24.4967 4.19226 25.6363 2.6678 25.6363C1.14334 25.6363 0 24.3701 0 22.9773C0 21.4579 1.14334 20.3184 2.6678 20.3184C4.19226 20.3184 5.3356 21.4579 5.3356 22.9773Z" fill="white"/>
<path d="M28.0753 22.9773C28.0753 24.4967 26.932 25.6363 25.4075 25.6363C23.8831 25.6363 22.7397 24.4967 22.7397 22.9773C22.7397 21.4579 23.8831 20.3184 25.4075 20.3184C26.805 20.3184 28.0753 21.4579 28.0753 22.9773Z" fill="white"/>
<path d="M50.6881 22.9773C50.6881 24.4967 49.5448 25.6363 48.0203 25.6363C46.4959 25.6363 45.3525 24.4967 45.3525 22.9773C45.3525 21.4579 46.4959 20.3184 48.0203 20.3184C49.5448 20.3184 50.6881 21.4579 50.6881 22.9773Z" fill="white"/>
<path d="M73.4279 22.9773C73.4279 24.4967 72.2845 25.6363 70.7601 25.6363C69.2356 25.6363 68.0923 24.4967 68.0923 22.9773C68.0923 21.4579 69.2356 20.3184 70.7601 20.3184C72.2845 20.3184 73.4279 21.4579 73.4279 22.9773Z" fill="white"/>
<path d="M96.1676 22.9773C96.1676 24.4967 95.0243 25.6363 93.4998 25.6363C91.9754 25.6363 90.832 24.4967 90.832 22.9773C90.832 21.4579 91.9754 20.3184 93.4998 20.3184C94.8972 20.3184 96.1676 21.4579 96.1676 22.9773Z" fill="white"/>
<path d="M118.908 22.9773C118.908 24.4967 117.765 25.6363 116.24 25.6363C114.716 25.6363 113.572 24.4967 113.572 22.9773C113.572 21.4579 114.716 20.3184 116.24 20.3184C117.765 20.3184 118.908 21.4579 118.908 22.9773Z" fill="white"/>
<path d="M141.52 22.9773C141.52 24.4967 140.377 25.6363 138.852 25.6363C137.328 25.6363 136.185 24.4967 136.185 22.9773C136.185 21.4579 137.328 20.3184 138.852 20.3184C140.377 20.3184 141.52 21.4579 141.52 22.9773Z" fill="white"/>
<path d="M164.26 22.9773C164.26 24.4967 163.117 25.6363 161.592 25.6363C160.068 25.6363 158.924 24.4967 158.924 22.9773C158.924 21.4579 160.068 20.3184 161.592 20.3184C163.117 20.3184 164.26 21.4579 164.26 22.9773Z" fill="white"/>
<path d="M187 22.9773C187 24.4967 185.857 25.6363 184.332 25.6363C182.808 25.6363 181.665 24.4967 181.665 22.9773C181.665 21.4579 182.808 20.3184 184.332 20.3184C185.73 20.3184 187 21.4579 187 22.9773Z" fill="white"/>
<path d="M5.3356 83.9324C5.3356 85.4518 4.19226 86.5914 2.6678 86.5914C1.14334 86.5914 0 85.4518 0 83.9324C0 82.413 1.14334 81.2734 2.6678 81.2734C4.19226 81.2734 5.3356 82.5396 5.3356 83.9324Z" fill="white"/>
<path d="M28.0753 83.9324C28.0753 85.4518 26.932 86.5914 25.4075 86.5914C23.8831 86.5914 22.7397 85.4518 22.7397 83.9324C22.7397 82.413 23.8831 81.2734 25.4075 81.2734C26.805 81.2734 28.0753 82.5396 28.0753 83.9324Z" fill="white"/>
<path d="M50.6881 83.9324C50.6881 85.4518 49.5448 86.5914 48.0203 86.5914C46.4959 86.5914 45.3525 85.4518 45.3525 83.9324C45.3525 82.413 46.4959 81.2734 48.0203 81.2734C49.5448 81.2734 50.6881 82.5396 50.6881 83.9324Z" fill="white"/>
<path d="M73.4279 83.9324C73.4279 85.4518 72.2845 86.5914 70.7601 86.5914C69.2356 86.5914 68.0923 85.4518 68.0923 83.9324C68.0923 82.413 69.2356 81.2734 70.7601 81.2734C72.2845 81.2734 73.4279 82.5396 73.4279 83.9324Z" fill="white"/>
<path d="M96.1676 83.9324C96.1676 85.4518 95.0243 86.5914 93.4998 86.5914C91.9754 86.5914 90.832 85.4518 90.832 83.9324C90.832 82.413 91.9754 81.2734 93.4998 81.2734C94.8972 81.2734 96.1676 82.5396 96.1676 83.9324Z" fill="white"/>
<path d="M118.908 83.9324C118.908 85.4518 117.765 86.5914 116.24 86.5914C114.716 86.5914 113.572 85.4518 113.572 83.9324C113.572 82.413 114.716 81.2734 116.24 81.2734C117.765 81.2734 118.908 82.5396 118.908 83.9324Z" fill="white"/>
<path d="M141.52 83.9324C141.52 85.4518 140.377 86.5914 138.852 86.5914C137.328 86.5914 136.185 85.4518 136.185 83.9324C136.185 82.413 137.328 81.2734 138.852 81.2734C140.377 81.2734 141.52 82.5396 141.52 83.9324Z" fill="white"/>
<path d="M164.26 83.9324C164.26 85.4518 163.117 86.5914 161.592 86.5914C160.068 86.5914 158.924 85.4518 158.924 83.9324C158.924 82.413 160.068 81.2734 161.592 81.2734C163.117 81.2734 164.26 82.5396 164.26 83.9324Z" fill="white"/>
<path d="M187 83.9324C187 85.4518 185.857 86.5914 184.332 86.5914C182.808 86.5914 181.665 85.4518 181.665 83.9324C181.665 82.413 182.808 81.2734 184.332 81.2734C185.73 81.2734 187 82.5396 187 83.9324Z" fill="white"/>
<path d="M5.3356 104.251C5.3356 105.77 4.19226 106.91 2.6678 106.91C1.14334 106.91 0 105.77 0 104.251C0 102.731 1.14334 101.592 2.6678 101.592C4.19226 101.592 5.3356 102.731 5.3356 104.251Z" fill="white"/>
<path d="M28.0753 104.251C28.0753 105.77 26.932 106.91 25.4075 106.91C23.8831 106.91 22.7397 105.77 22.7397 104.251C22.7397 102.731 23.8831 101.592 25.4075 101.592C26.805 101.592 28.0753 102.731 28.0753 104.251Z" fill="white"/>
<path d="M50.6881 104.251C50.6881 105.77 49.5448 106.91 48.0203 106.91C46.4959 106.91 45.3525 105.77 45.3525 104.251C45.3525 102.731 46.4959 101.592 48.0203 101.592C49.5448 101.592 50.6881 102.731 50.6881 104.251Z" fill="white"/>
<path d="M70.7601 106.91C72.2335 106.91 73.4279 105.719 73.4279 104.251C73.4279 102.782 72.2335 101.592 70.7601 101.592C69.2867 101.592 68.0923 102.782 68.0923 104.251C68.0923 105.719 69.2867 106.91 70.7601 106.91Z" fill="white"/>
<path d="M96.1676 104.251C96.1676 105.77 95.0243 106.91 93.4998 106.91C91.9754 106.91 90.832 105.77 90.832 104.251C90.832 102.731 91.9754 101.592 93.4998 101.592C94.8972 101.592 96.1676 102.731 96.1676 104.251Z" fill="white"/>
<path d="M118.908 104.251C118.908 105.77 117.765 106.91 116.24 106.91C114.716 106.91 113.572 105.77 113.572 104.251C113.572 102.731 114.716 101.592 116.24 101.592C117.765 101.592 118.908 102.731 118.908 104.251Z" fill="white"/>
<path d="M141.52 104.251C141.52 105.77 140.377 106.91 138.852 106.91C137.328 106.91 136.185 105.77 136.185 104.251C136.185 102.731 137.328 101.592 138.852 101.592C140.377 101.592 141.52 102.731 141.52 104.251Z" fill="white"/>
<path d="M161.592 106.91C163.065 106.91 164.26 105.719 164.26 104.251C164.26 102.782 163.065 101.592 161.592 101.592C160.119 101.592 158.924 102.782 158.924 104.251C158.924 105.719 160.119 106.91 161.592 106.91Z" fill="white"/>
<path d="M187 104.251C187 105.77 185.857 106.91 184.332 106.91C182.808 106.91 181.665 105.77 181.665 104.251C181.665 102.731 182.808 101.592 184.332 101.592C185.73 101.592 187 102.731 187 104.251Z" fill="white"/>
<path d="M5.3356 124.569C5.3356 126.089 4.19226 127.228 2.6678 127.228C1.14334 127.228 0 126.089 0 124.569C0 123.05 1.14334 121.91 2.6678 121.91C4.19226 121.91 5.3356 123.05 5.3356 124.569Z" fill="white"/>
<path d="M28.0753 124.569C28.0753 126.089 26.932 127.228 25.4075 127.228C23.8831 127.228 22.7397 126.089 22.7397 124.569C22.7397 123.05 23.8831 121.91 25.4075 121.91C26.805 121.91 28.0753 123.05 28.0753 124.569Z" fill="white"/>
<path d="M50.6881 124.569C50.6881 126.089 49.5448 127.228 48.0203 127.228C46.4959 127.228 45.3525 126.089 45.3525 124.569C45.3525 123.05 46.4959 121.91 48.0203 121.91C49.5448 121.91 50.6881 123.05 50.6881 124.569Z" fill="white"/>
<path d="M73.4279 124.569C73.4279 126.089 72.2845 127.228 70.7601 127.228C69.2356 127.228 68.0923 126.089 68.0923 124.569C68.0923 123.05 69.2356 121.91 70.7601 121.91C72.2845 121.91 73.4279 123.05 73.4279 124.569Z" fill="white"/>
<path d="M96.1676 124.569C96.1676 126.089 95.0243 127.228 93.4998 127.228C91.9754 127.228 90.832 126.089 90.832 124.569C90.832 123.05 91.9754 121.91 93.4998 121.91C94.8972 121.91 96.1676 123.05 96.1676 124.569Z" fill="white"/>
<path d="M118.908 124.569C118.908 126.089 117.765 127.228 116.24 127.228C114.716 127.228 113.572 126.089 113.572 124.569C113.572 123.05 114.716 121.91 116.24 121.91C117.765 121.91 118.908 123.05 118.908 124.569Z" fill="white"/>
<path d="M141.52 124.569C141.52 126.089 140.377 127.228 138.852 127.228C137.328 127.228 136.185 126.089 136.185 124.569C136.185 123.05 137.328 121.91 138.852 121.91C140.377 121.91 141.52 123.05 141.52 124.569Z" fill="white"/>
<path d="M164.26 124.569C164.26 126.089 163.117 127.228 161.592 127.228C160.068 127.228 158.924 126.089 158.924 124.569C158.924 123.05 160.068 121.91 161.592 121.91C163.117 121.91 164.26 123.05 164.26 124.569Z" fill="white"/>
<path d="M187 124.569C187 126.089 185.857 127.228 184.332 127.228C182.808 127.228 181.665 126.089 181.665 124.569C181.665 123.05 182.808 121.91 184.332 121.91C185.73 121.91 187 123.05 187 124.569Z" fill="white"/>
</g>
<defs>
<clipPath id="clip0_2234_8808">
<rect width="187" height="137" fill="white"/>
</clipPath>
</defs>
</svg>
